<?xml version="1.0" standalone="no"?>
<!DOCTYPE svg PUBLIC "-//W3C//DTD SVG 20010904//EN"
 "http://www.w3.org/TR/2001/REC-SVG-20010904/DTD/svg10.dtd">
<svg version="1.0" xmlns="http://www.w3.org/2000/svg"
 width="300.000000pt" height="300.000000pt" viewBox="0 0 300.000000 300.000000"
 preserveAspectRatio="xMidYMid meet">
<metadata>
Created by potrace 1.11, written by Peter Selinger 2001-2013
</metadata>
<g transform="translate(0.000000,300.000000) scale(0.100000,-0.100000)"
fill="#000000" stroke="none">
<path d="M1264 2765 c-13 -25 -14 -36 -5 -53 6 -12 18 -22 25 -22 11 0 10 -13
-5 -65 -10 -36 -18 -69 -19 -73 0 -4 -12 -10 -26 -14 -82 -22 -85 -108 -4
-108 25 0 27 -5 34 -102 3 -42 8 -88 11 -101 6 -21 -2 -28 -61 -63 -64 -37
-145 -108 -188 -164 -27 -36 -71 -137 -85 -194 -12 -50 -17 -238 -8 -273 3
-10 8 -39 11 -64 4 -25 15 -79 25 -120 11 -41 22 -85 25 -99 5 -25 67 -239 86
-296 5 -17 10 -38 10 -48 0 -10 15 -33 33 -51 39 -39 125 -58 260 -56 48 1 87
-2 88 -6 0 -4 3 -19 5 -33 10 -52 13 -391 4 -414 -5 -13 -20 -35 -34 -49 -14
-15 -26 -35 -26 -46 0 -15 -16 -25 -70 -46 -39 -15 -78 -34 -87 -43 -25 -25
-53 -93 -53 -129 l0 -33 414 0 c228 0 417 3 420 8 7 12 -31 110 -56 141 -21
27 -74 59 -108 65 -8 1 -41 8 -72 15 -55 12 -58 14 -58 42 0 16 -5 29 -12 29
-10 0 -13 28 -13 108 -1 135 -21 330 -41 404 -4 13 12 20 93 38 162 37 379
115 496 178 l49 26 -6 61 c-4 33 -8 87 -11 120 -4 66 -12 138 -21 200 -3 22
-7 51 -9 65 -2 14 -8 59 -15 100 -54 366 -99 555 -142 601 -37 38 -116 74
-197 89 -67 12 -220 15 -287 5 -88 -13 -156 -26 -197 -39 l-44 -13 -21 82
c-12 46 -22 87 -22 93 0 5 14 15 30 22 17 7 35 21 41 31 13 25 4 24 -21 -1
-11 -11 -29 -20 -40 -20 -17 0 -20 7 -20 45 0 44 0 44 27 34 15 -6 33 -15 40
-21 8 -7 13 -7 13 0 0 14 -46 42 -70 42 -16 0 -20 6 -20 34 0 53 11 96 25 96
40 0 50 73 15 102 -36 29 -85 21 -106 -17z m-6 -280 c-1 -37 -5 -45 -20 -45
-54 0 -76 45 -35 73 42 30 57 22 55 -28z"/>
</g>
</svg>
